<svg width="85" height="22" viewBox="0 0 85 22" fill="none" xmlns="http://www.w3.org/2000/svg">
<path fill-rule="evenodd" clip-rule="evenodd" d="M57.3059 8.5224C56.2936 8.5224 55.2872 8.3687 54.3211 8.06657L29.9848 0.455829C28.0413 -0.151943 25.9587 -0.151943 24.0152 0.455829L0.530897 7.80012C0.215038 7.8989 0 8.19146 0 8.5224V9.2724V12.5224V13.5224C0 13.7046 0.118392 13.8657 0.292293 13.9201L24.0152 21.339C25.9587 21.9467 28.0413 21.9467 29.9848 21.339L53.5217 13.9782C54.4878 13.6761 55.4942 13.5224 56.5065 13.5224H82.5C83.8807 13.5224 85 12.4031 85 11.0224C85 9.64169 83.8807 8.5224 82.5 8.5224H57.3059Z" fill="black"/>
</svg>
