<svg width="22" height="85" viewBox="0 0 22 85" fill="none" xmlns="http://www.w3.org/2000/svg">
<path fill-rule="evenodd" clip-rule="evenodd" d="M13.2725 57.3059C13.2725 56.2936 13.4262 55.2872 13.7283 54.3211L21.3391 29.9848C21.9469 28.0413 21.9469 25.9587 21.3391 24.0152L13.9948 0.530897C13.896 0.215038 13.6035 -3.5806e-07 13.2725 -3.72526e-07L12.5225 -4.05309e-07L9.27252 -5.47371e-07L8.27252 -5.91083e-07C8.09032 -5.99047e-07 7.92924 0.118392 7.87486 0.292292L0.455951 24.0152C-0.151822 25.9587 -0.151822 28.0413 0.45595 29.9848L7.81669 53.5217C8.11883 54.4878 8.27252 55.4942 8.27252 56.5065L8.27252 82.5C8.27252 83.8807 9.39181 85 10.7725 85C12.1532 85 13.2725 83.8807 13.2725 82.5L13.2725 57.3059Z" fill="black"/>
</svg>
